<mxfile host="app.diagrams.net" modified="2023-05-23T23:02:24.365Z" agent="Mozilla/5.0 (Windows NT 10.0; Win64; x64) AppleWebKit/537.36 (KHTML, like Gecko) Chrome/112.0.0.0 Safari/537.36 OPR/98.0.0.0" etag="T0ewda-YjmEpnRLeReCB" version="21.3.2" type="device">
  <diagram name="PÃ¡gina-1" id="Mm97B2NtBTDsC2e90lhS">
    <mxGraphModel dx="1074" dy="586" grid="1" gridSize="10" guides="1" tooltips="1" connect="1" arrows="1" fold="1" page="1" pageScale="1" pageWidth="827" pageHeight="1169" background="#ffffff" math="0" shadow="0">
      <root>
        <mxCell id="0" />
        <mxCell id="1" parent="0" />
        <mxCell id="xpTaHgk6dkxUc-pqj0go-1" value="Vehiculo" style="swimlane;childLayout=stackLayout;horizontal=1;startSize=50;horizontalStack=0;rounded=1;fontSize=14;fontStyle=0;strokeWidth=2;resizeParent=0;resizeLast=1;shadow=0;dashed=0;align=center;arcSize=4;whiteSpace=wrap;html=1;fillColor=none;strokeColor=#141414;fontColor=#141414;" parent="1" vertex="1">
          <mxGeometry x="290" y="20" width="160" height="120" as="geometry" />
        </mxCell>
        <mxCell id="xpTaHgk6dkxUc-pqj0go-2" value="+Marca&lt;br&gt;+Modelo&lt;br&gt;+Numero_ruedas" style="align=left;fillColor=none;spacingLeft=4;fontSize=12;verticalAlign=top;resizable=0;rotatable=0;part=1;html=1;strokeColor=#141414;fontColor=#141414;" parent="xpTaHgk6dkxUc-pqj0go-1" vertex="1">
          <mxGeometry y="50" width="160" height="70" as="geometry" />
        </mxCell>
        <mxCell id="xpTaHgk6dkxUc-pqj0go-3" value="Automovil" style="swimlane;childLayout=stackLayout;horizontal=1;startSize=50;horizontalStack=0;rounded=1;fontSize=14;fontStyle=0;strokeWidth=2;resizeParent=0;resizeLast=1;shadow=0;dashed=0;align=center;arcSize=4;whiteSpace=wrap;html=1;fillColor=none;strokeColor=#141414;fontColor=#141414;" parent="1" vertex="1">
          <mxGeometry x="110" y="140" width="160" height="120" as="geometry" />
        </mxCell>
        <mxCell id="xpTaHgk6dkxUc-pqj0go-4" value="+velocidad&lt;br&gt;+cilindrada" style="align=left;fillColor=none;spacingLeft=4;fontSize=12;verticalAlign=top;resizable=0;rotatable=0;part=1;html=1;strokeColor=#141414;fontColor=#141414;" parent="xpTaHgk6dkxUc-pqj0go-3" vertex="1">
          <mxGeometry y="50" width="160" height="70" as="geometry" />
        </mxCell>
        <mxCell id="xpTaHgk6dkxUc-pqj0go-27" style="edgeStyle=orthogonalEdgeStyle;rounded=0;orthogonalLoop=1;jettySize=auto;html=1;exitX=0.25;exitY=0;exitDx=0;exitDy=0;entryX=0.006;entryY=0.129;entryDx=0;entryDy=0;entryPerimeter=0;fillColor=none;strokeColor=#141414;fontColor=#141414;" parent="1" source="xpTaHgk6dkxUc-pqj0go-7" target="xpTaHgk6dkxUc-pqj0go-4" edge="1">
          <mxGeometry relative="1" as="geometry">
            <mxPoint x="80" y="190" as="targetPoint" />
          </mxGeometry>
        </mxCell>
        <mxCell id="xpTaHgk6dkxUc-pqj0go-7" value="Particular" style="swimlane;childLayout=stackLayout;horizontal=1;startSize=50;horizontalStack=0;rounded=1;fontSize=14;fontStyle=0;strokeWidth=2;resizeParent=0;resizeLast=1;shadow=0;dashed=0;align=center;arcSize=4;whiteSpace=wrap;html=1;fillColor=none;strokeColor=#141414;fontColor=#141414;" parent="1" vertex="1">
          <mxGeometry x="40" y="320" width="160" height="120" as="geometry" />
        </mxCell>
        <mxCell id="xpTaHgk6dkxUc-pqj0go-8" value="+numero_puestos" style="align=left;fillColor=none;spacingLeft=4;fontSize=12;verticalAlign=top;resizable=0;rotatable=0;part=1;html=1;strokeColor=#141414;fontColor=#141414;" parent="xpTaHgk6dkxUc-pqj0go-7" vertex="1">
          <mxGeometry y="50" width="160" height="70" as="geometry" />
        </mxCell>
        <mxCell id="xpTaHgk6dkxUc-pqj0go-9" value="Carga" style="swimlane;childLayout=stackLayout;horizontal=1;startSize=50;horizontalStack=0;rounded=1;fontSize=14;fontStyle=0;strokeWidth=2;resizeParent=0;resizeLast=1;shadow=0;dashed=0;align=center;arcSize=4;whiteSpace=wrap;html=1;fillColor=none;strokeColor=#141414;fontColor=#141414;" parent="1" vertex="1">
          <mxGeometry x="230" y="320" width="160" height="120" as="geometry" />
        </mxCell>
        <mxCell id="xpTaHgk6dkxUc-pqj0go-10" value="+peso_carga" style="align=left;fillColor=none;spacingLeft=4;fontSize=12;verticalAlign=top;resizable=0;rotatable=0;part=1;html=1;strokeColor=#141414;fontColor=#141414;" parent="xpTaHgk6dkxUc-pqj0go-9" vertex="1">
          <mxGeometry y="50" width="160" height="70" as="geometry" />
        </mxCell>
        <mxCell id="xpTaHgk6dkxUc-pqj0go-11" value="Bicicleta" style="swimlane;childLayout=stackLayout;horizontal=1;startSize=50;horizontalStack=0;rounded=1;fontSize=14;fontStyle=0;strokeWidth=2;resizeParent=0;resizeLast=1;shadow=0;dashed=0;align=center;arcSize=4;whiteSpace=wrap;html=1;fillColor=none;strokeColor=#141414;fontColor=#141414;" parent="1" vertex="1">
          <mxGeometry x="480" y="160" width="160" height="120" as="geometry" />
        </mxCell>
        <mxCell id="xpTaHgk6dkxUc-pqj0go-12" value="+tipo" style="align=left;fillColor=none;spacingLeft=4;fontSize=12;verticalAlign=top;resizable=0;rotatable=0;part=1;html=1;strokeColor=#141414;fontColor=#141414;" parent="xpTaHgk6dkxUc-pqj0go-11" vertex="1">
          <mxGeometry y="50" width="160" height="70" as="geometry" />
        </mxCell>
        <mxCell id="xpTaHgk6dkxUc-pqj0go-13" value="Motocicleta&lt;span style=&quot;white-space: pre;&quot;&gt; &lt;/span&gt;" style="swimlane;childLayout=stackLayout;horizontal=1;startSize=50;horizontalStack=0;rounded=1;fontSize=14;fontStyle=0;strokeWidth=2;resizeParent=0;resizeLast=1;shadow=0;dashed=0;align=center;arcSize=4;whiteSpace=wrap;html=1;fillColor=none;strokeColor=#141414;fontColor=#141414;" parent="1" vertex="1">
          <mxGeometry x="480" y="320" width="160" height="120" as="geometry" />
        </mxCell>
        <mxCell id="xpTaHgk6dkxUc-pqj0go-14" value="+nro_radios&lt;br&gt;+cuadro&lt;br&gt;+motor" style="align=left;fillColor=none;spacingLeft=4;fontSize=12;verticalAlign=top;resizable=0;rotatable=0;part=1;html=1;strokeColor=#141414;fontColor=#141414;" parent="xpTaHgk6dkxUc-pqj0go-13" vertex="1">
          <mxGeometry y="50" width="160" height="70" as="geometry" />
        </mxCell>
        <mxCell id="xpTaHgk6dkxUc-pqj0go-22" value="" style="endArrow=classic;html=1;rounded=0;entryX=0;entryY=0.5;entryDx=0;entryDy=0;exitX=0.5;exitY=0;exitDx=0;exitDy=0;fillColor=none;strokeColor=#141414;fontColor=#141414;" parent="1" source="xpTaHgk6dkxUc-pqj0go-3" target="xpTaHgk6dkxUc-pqj0go-1" edge="1">
          <mxGeometry width="50" height="50" relative="1" as="geometry">
            <mxPoint x="190" y="160" as="sourcePoint" />
            <mxPoint x="190" y="80" as="targetPoint" />
            <Array as="points">
              <mxPoint x="190" y="80" />
            </Array>
          </mxGeometry>
        </mxCell>
        <mxCell id="xpTaHgk6dkxUc-pqj0go-31" value="" style="endArrow=classic;html=1;rounded=0;entryX=1.019;entryY=0.129;entryDx=0;entryDy=0;entryPerimeter=0;exitX=0.5;exitY=0;exitDx=0;exitDy=0;fillColor=none;strokeColor=#141414;fontColor=#141414;" parent="1" source="xpTaHgk6dkxUc-pqj0go-9" target="xpTaHgk6dkxUc-pqj0go-4" edge="1">
          <mxGeometry width="50" height="50" relative="1" as="geometry">
            <mxPoint x="310" y="280" as="sourcePoint" />
            <mxPoint x="360" y="230" as="targetPoint" />
            <Array as="points">
              <mxPoint x="310" y="200" />
            </Array>
          </mxGeometry>
        </mxCell>
        <mxCell id="xpTaHgk6dkxUc-pqj0go-32" value="" style="endArrow=classic;html=1;rounded=0;entryX=1;entryY=0;entryDx=0;entryDy=0;fillColor=none;strokeColor=#141414;fontColor=#141414;" parent="1" target="xpTaHgk6dkxUc-pqj0go-2" edge="1">
          <mxGeometry width="50" height="50" relative="1" as="geometry">
            <mxPoint x="550" y="160" as="sourcePoint" />
            <mxPoint x="600" y="110" as="targetPoint" />
            <Array as="points">
              <mxPoint x="550" y="70" />
            </Array>
          </mxGeometry>
        </mxCell>
        <mxCell id="xpTaHgk6dkxUc-pqj0go-33" value="" style="endArrow=classic;html=1;rounded=0;entryX=0.5;entryY=1;entryDx=0;entryDy=0;exitX=0.5;exitY=0;exitDx=0;exitDy=0;fillColor=none;strokeColor=#141414;fontColor=#141414;" parent="1" source="xpTaHgk6dkxUc-pqj0go-13" target="xpTaHgk6dkxUc-pqj0go-12" edge="1">
          <mxGeometry width="50" height="50" relative="1" as="geometry">
            <mxPoint x="550" y="320" as="sourcePoint" />
            <mxPoint x="600" y="270" as="targetPoint" />
          </mxGeometry>
        </mxCell>
      </root>
    </mxGraphModel>
  </diagram>
</mxfile>
